<?xml version="1.0" standalone="no"?><!DOCTYPE svg PUBLIC "-//W3C//DTD SVG 1.1//EN" "http://www.w3.org/Graphics/SVG/1.1/DTD/svg11.dtd"><svg t="1524455430395" class="icon" style="" viewBox="0 0 1024 1024" version="1.1" xmlns="http://www.w3.org/2000/svg" p-id="3456" xmlns:xlink="http://www.w3.org/1999/xlink" width="32" height="32"><defs><style type="text/css"></style></defs><path d="M367.701333 415.04l4.074667 18.304-11.392 20.096 217.386667 3.669333a20.757333 20.757333 0 0 0 0.533333-41.536l-210.602667-0.533333z m301.056 11.136l-1.408 7.274667 3.52 6.528 299.242667 556.373333 18.282667-30.613333H35.648l18.090667 30.976 314.176-556.373334 3.946666-6.976-1.770666-7.808-87.978667-387.648-20.245333 25.344h87.978666l-17.493333-9.536c0.768 1.152 2.090667 3.2 4.010667 5.952a483.157333 483.157333 0 0 0 48.917333 60.074667c40.768 42.410667 82.197333 68.48 123.946667 69.184h3.136c42.282667-0.661333 82.944-26.944 121.92-69.589333a446.442667 446.442667 0 0 0 49.834666-66.282667l-17.877333 10.197333h98.304l-20.373333-24.725333-75.413334 387.648zM789.76 21.76H654.4l-6.037333 10.197333a405.504 405.504 0 0 1-44.736 59.392C571.669333 126.293333 539.690667 146.986667 511.701333 147.413333c-29.610667-0.469333-62.72-21.333333-96.512-56.469333a442.218667 442.218667 0 0 1-47.893333-59.669333l-6.122667-9.536h-125.312l5.76 25.344 87.957334 387.669333 2.176-14.805333L17.578667 976.32l-17.493334 30.954667H1023.146667l-16.469334-30.592-299.242666-556.373334 2.090666 13.802667 75.413334-387.648 4.8-24.746667z" p-id="3457" fill="#d81e06"></path></svg>