<?xml version="1.0" standalone="no"?><!DOCTYPE svg PUBLIC "-//W3C//DTD SVG 1.1//EN" "http://www.w3.org/Graphics/SVG/1.1/DTD/svg11.dtd"><svg t="1524455462607" class="icon" style="" viewBox="0 0 1024 1024" version="1.1" xmlns="http://www.w3.org/2000/svg" p-id="3986" xmlns:xlink="http://www.w3.org/1999/xlink" width="32" height="32"><defs><style type="text/css"></style></defs><path d="M224.16 391.36v610.08H93.44C41.92 1001.44 0 960 0 909.28V483.36c0-50.72 41.92-92 93.44-92h130.72zM1006.08 573.44c-3.84 6.72-7.52 12.64-10.88 18.08-16.16 26.72-22.4 36.8-20.32 69.92 0.48 10.08 1.92 20.32 3.36 30.4 5.28 39.36 12 88.16-26.24 133.76-25.92 31.36-29.44 48.8-31.84 60.48-1.12 5.44-2.24 11.2-5.12 16.96-32.16 63.68-90.56 98.4-165.28 98.4H272.16V391.36h27.52c29.28 0 94.24-61.44 157.76-149.28 24.16-33.28 24.16-41.12 24.16-101.92C481.6 61.6 533.92 0 600.64 0c60.32 0 130.56 34.56 130.56 131.68 0 58.88-17.6 168.48-26.72 220.96 34.88-0.8 94.4-1.92 148.48-1.92 63.84 0 120.16 30.72 150.56 82.4 26.4 44.96 27.36 97.44 2.56 140.32z" p-id="3987" fill="#d81e06"></path></svg>