<?xml version="1.0" standalone="no"?><!DOCTYPE svg PUBLIC "-//W3C//DTD SVG 1.1//EN" "http://www.w3.org/Graphics/SVG/1.1/DTD/svg11.dtd"><svg t="1524455479918" class="icon" style="" viewBox="0 0 1024 1024" version="1.1" xmlns="http://www.w3.org/2000/svg" p-id="4516" xmlns:xlink="http://www.w3.org/1999/xlink" width="32" height="32"><defs><style type="text/css"></style></defs><path d="M512 0C229.25 0 0 229.25 0 512c0 155.458333 69.25 294.658333 178.625 388.608333l-55.9375 96.833333 0 0.0625c-1.854167 2.6875-2.879167 6.016667-2.879167 9.470833 0 9.345833 7.4875 16.833333 16.704167 17.025l0.704167 0 374.783333 0c282.754167 0 512-229.25 512-512S794.754167 0 512 0zM297.216667 639.683333c-7.425 0-14.270833-3.904167-17.983333-10.304167-2.75-4.8625-3.520833-10.495833-2.05-15.870833 1.470833-5.3125 4.8625-9.729167 9.6625-12.479167l180.416667-104.191667c9.5375-5.566667 22.85-1.983333 28.2875 7.616667 2.75 4.8 3.520833 10.366667 2.1125 15.679167-1.408333 5.375-4.8625 9.854167-9.6625 12.608333l-180.416667 104.129167C304.45 638.720833 300.866667 639.683333 297.216667 639.683333zM353.408333 737.025c-7.425 0-14.270833-3.904167-17.983333-10.304167-5.695833-9.920833-2.304167-22.720833 7.616667-28.416667l180.479167-104.129167c9.5375-5.633333 22.720833-2.05 28.2875 7.55 2.816667 4.8 3.520833 10.433333 2.1125 15.808333-1.470833 5.3125-4.8625 9.791667-9.729167 12.545833l-180.354167 104.191667C360.641667 736.066667 357.058333 737.025 353.408333 737.025zM877.825 567.295833l-457.920833 264.258333c-3.1375 1.854167-6.720833 2.75-10.304167 2.75-7.425 0-14.270833-3.904167-17.983333-10.304167-2.75-4.8-3.520833-10.433333-2.1125-15.808333 1.408333-5.3125 4.8625-9.791667 9.6625-12.545833l428.545833-247.4875c6.975-4.033333 11.904167-10.433333 13.8875-18.1125 2.1125-7.679167 1.025-15.679167-2.945833-22.591667l-117.954167-204.416667c-5.375-9.216667-15.295833-14.9125-25.920833-14.9125-5.183333 0-10.366667 1.345833-14.85 3.966667L251.329167 539.520833c-9.470833 5.566667-22.85 1.983333-28.2875-7.616667-2.75-4.8-3.520833-10.366667-2.1125-15.679167 1.470833-5.3125 4.929167-9.791667 9.729167-12.545833l181.566667-105.345833c5.25-3.966667 6.85-10.945833 3.583333-16.575-0.833333-1.470833-1.920833-2.6875-3.329167-3.7125l-0.641667-0.383333-117.375-67.775c-4.545833-2.625-9.729167-3.966667-14.9125-3.966667-10.625 0-20.545833 5.695833-25.854167 14.9125l-2.558333 4.35-0.0625-0.0625-84.354167 146.241667c-5.504167 9.470833-18.75 13.054167-28.35 7.55-4.7375-2.75-8.191667-7.233333-9.6625-12.545833-1.408333-5.375-0.641667-11.008333 2.1125-15.808333l104.129167-180.416667c1.5375-2.495833 3.520833-4.670833 6.079167-6.4625 0-0.254167 0.254167-0.5125 0.575-0.833333 9.15-8.704167 21.8875-12.095833 34.175-9.216667 3.583333 0.833333 6.975 1.6625 10.175 3.454167l170.495833 98.433333 0.254167-0.320833 2.816667 1.345833c8 3.775 16.833333 3.904167 24.766667 0.320833l2.945833-1.345833 201.216667-116.158333c3.2-1.854167 6.654167-2.625 9.6-3.329167 3.454167-0.833333 6.4625-1.216667 9.345833-1.216667 9.408333 0 18.433333 3.65 25.345833 10.241667 2.625 2.495833 5.25 4.8625 7.104167 8.0625l151.745833 262.783333c1.983333 3.391667 2.6875 6.975 3.454167 10.175 2.879167 12.225-0.5125 25.025-9.0875 34.1125C883.266667 562.883333 881.025 565.379167 877.825 567.295833z" p-id="4517" fill="#d81e06"></path></svg>